<svg version="1.1" id="Layer_1" xmlns="http://www.w3.org/2000/svg" xmlns:xlink="http://www.w3.org/1999/xlink" x="0px" y="0px"
	 width="100%" viewBox="0 0 259 261" enable-background="new 0 0 259 261" xml:space="preserve">
<path fill="#000000" opacity="1.000000" stroke="none" 
	d="
M169.000000,262.000000 
	C112.666664,262.000000 56.833332,262.000000 1.000000,262.000000 
	C1.000000,175.000000 1.000000,88.000000 1.000000,1.000000 
	C87.333336,1.000000 173.666672,1.000000 260.000000,1.000000 
	C260.000000,88.000000 260.000000,175.000000 260.000000,262.000000 
	C229.833328,262.000000 199.666672,262.000000 169.000000,262.000000 
M112.073212,219.517181 
	C112.387161,219.623093 112.701111,219.729004 113.939308,219.988327 
	C125.288239,219.937042 136.637161,219.885773 148.534393,219.925476 
	C148.619232,219.613892 148.704071,219.302292 148.921982,218.063049 
	C148.921982,176.357819 148.921982,134.652588 148.921982,92.428780 
	C165.169449,92.428780 182.053711,92.428780 198.882034,92.428780 
	C198.882034,82.061745 198.882034,72.223488 198.882034,62.411858 
	C152.975098,62.411858 107.564964,62.411858 61.599625,62.411858 
	C61.599625,72.483574 61.599625,82.325653 61.599625,92.634079 
	C78.327934,92.634079 95.062973,92.634079 112.084846,92.634079 
	C112.084846,96.082260 112.081818,99.072487 112.085304,102.062721 
	C112.130737,141.034561 112.177101,180.006393 112.073212,219.517181 
z"/>
<path fill="#FFFFFF" opacity="1.000000" stroke="none" 
	d="
M147.986099,219.834503 
	C136.637161,219.885773 125.288239,219.937042 113.399887,219.722321 
	C112.721260,219.199417 112.508850,219.040054 112.223236,218.978226 
	C112.177101,180.006393 112.130737,141.034561 112.085304,102.062721 
	C112.081818,99.072487 112.084846,96.082260 112.084846,92.634079 
	C95.062973,92.634079 78.327934,92.634079 61.599625,92.634079 
	C61.599625,82.325653 61.599625,72.483574 61.599625,62.411858 
	C107.564964,62.411858 152.975098,62.411858 198.882034,62.411858 
	C198.882034,72.223488 198.882034,82.061745 198.882034,92.428780 
	C182.053711,92.428780 165.169449,92.428780 148.921982,92.428780 
	C148.921982,134.652588 148.921982,176.357819 148.674377,218.615631 
	C148.217484,219.349045 148.070587,219.571136 147.986099,219.834503 
z"/>
<path fill="#DADADA" opacity="1.000000" stroke="none" 
	d="
M112.148224,219.247711 
	C112.508850,219.040054 112.721260,219.199417 112.937767,219.645630 
	C112.701111,219.729004 112.387161,219.623093 112.148224,219.247711 
z"/>
<path fill="#E1E1E1" opacity="1.000000" stroke="none" 
	d="
M148.260254,219.879990 
	C148.070587,219.571136 148.217484,219.349045 148.607834,219.079468 
	C148.704071,219.302292 148.619232,219.613892 148.260254,219.879990 
z"/>
</svg>